Coordinates
version=1
nRows=16
nColumns=38
inDegrees=no

Units are S.I. units (second, meters, Newtons, ...)
If the header above contains a line with 'inDegrees', this indicates whether rotational values are in degrees (yes) or radians (no).

endheader
time	pelvis_tilt	pelvis_list	pelvis_rotation	pelvis_tx	pelvis_ty	pelvis_tz	hip_flexion_r	hip_adduction_r	hip_rotation_r	knee_angle_r	ankle_angle_r	subtalar_angle_r	mtp_angle_r	hip_flexion_l	hip_adduction_l	hip_rotation_l	knee_angle_l	ankle_angle_l	subtalar_angle_l	mtp_angle_l	lumbar_extension	lumbar_bending	lumbar_rotation	arm_flex_r	arm_add_r	arm_rot_r	elbow_flex_r	pro_sup_r	wrist_flex_r	wrist_dev_r	arm_flex_l	arm_add_l	arm_rot_l	elbow_flex_l	pro_sup_l	wrist_flex_l	wrist_dev_l
0	2.16141	1.37713	-0.624592	0.675504	-0.45667	0.981141	-0.083588	0.159467	-0.280569	0.208643	0.0909977	0	0	-0.203264	-0.131737	-0.158449	0.00353121	0.0759755	0	0	-0.150547	0.198199	0.0195754	-0.0784455	-0.322599	0.475077	0.752448	1.01174	0	0	-0.0219189	-0.185417	0.657528	0.621932	0.845448	0	0
0.01	2.15828	1.37769	-0.620826	0.675422	-0.45651	0.981138	-0.0835619	0.159851	-0.279175	0.206898	0.0899147	0	0	-0.203644	-0.131456	-0.155676	0.000823858	0.0742557	0	0	-0.149546	0.198206	0.0188071	-0.0754318	-0.323874	0.485335	0.746025	1.0093	0	0	-0.0195193	-0.186112	0.667254	0.617614	0.841409	0	0
0.02	2.15551	1.3785	-0.617365	0.675375	-0.456419	0.981134	-0.0824861	0.159556	-0.279645	0.207171	0.0898946	0	0	-0.202066	-0.131299	-0.155479	0.0019565	0.0746015	0	0	-0.149138	0.197174	0.0206125	-0.0781302	-0.323063	0.481435	0.745787	1.00908	0	0	-0.0180614	-0.186248	0.670029	0.616905	0.840672	0	0
0.03	2.15844	1.3777	-0.619906	0.675284	-0.456312	0.981117	-0.0836111	0.159856	-0.279889	0.207137	0.0901878	0	0	-0.203566	-0.131541	-0.154811	0.00124085	0.0744018	0	0	-0.150174	0.198133	0.0201716	-0.0785764	-0.32349	0.481083	0.746348	1.00964	0	0	-0.0181161	-0.186022	0.670686	0.616776	0.839293	0	0
0.04	2.15948	1.37716	-0.620213	0.675224	-0.456193	0.981122	-0.0844711	0.160351	-0.280531	0.206566	0.0897789	0	0	-0.204113	-0.132033	-0.154321	0.00120955	0.0744043	0	0	-0.151025	0.198559	0.0206808	-0.0801216	-0.323331	0.478864	0.747033	1.01084	0	0	-0.0176333	-0.186159	0.672179	0.616774	0.837977	0	0
0.05	2.16004	1.37692	-0.620224	0.67516	-0.456045	0.981085	-0.0848602	0.160547	-0.280968	0.206489	0.0899312	0	0	-0.204377	-0.132304	-0.154331	0.00129271	0.0748017	0	0	-0.151576	0.198825	0.0213627	-0.0816704	-0.323119	0.476818	0.747765	1.0119	0	0	-0.0175975	-0.186461	0.673195	0.617195	0.837628	0	0
0.06	2.16041	1.37673	-0.619669	0.675094	-0.455853	0.981031	-0.0852131	0.160763	-0.281798	0.206493	0.0903609	0	0	-0.204544	-0.132609	-0.154133	0.00138707	0.0754827	0	0	-0.151901	0.199064	0.0217054	-0.0835333	-0.322828	0.474364	0.748191	1.0135	0	0	-0.0175555	-0.186714	0.674048	0.617341	0.837278	0	0
0.07	2.16357	1.37596	-0.621423	0.674984	-0.455621	0.980976	-0.0865579	0.161119	-0.283388	0.206271	0.0908338	0	0	-0.2056	-0.133131	-0.15372	0.00134791	0.0763263	0	0	-0.152396	0.199926	0.0197104	-0.0837964	-0.323004	0.475023	0.747861	1.01522	0	0	-0.0187148	-0.18682	0.672726	0.61804	0.836805	0	0
0.08	2.16708	1.37529	-0.623821	0.674937	-0.455393	0.980937	-0.087877	0.161408	-0.28478	0.206136	0.0911753	0	0	-0.206825	-0.133519	-0.153197	0.00108669	0.0765323	0	0	-0.152785	0.200574	0.0171894	-0.083226	-0.323217	0.477657	0.746903	1.01616	0	0	-0.0206691	-0.187112	0.669946	0.619128	0.836504	0	0
0.09	2.16053	1.38725	-0.606585	0.674617	-0.4559	0.980699	-0.0768131	0.152444	-0.296623	0.20875	0.0935804	0	0	-0.164404	-0.138385	-0.222302	0.0612846	0.11176	0	0	-0.143437	0.191045	0.000434963	-0.0769825	-0.317192	0.484749	0.73591	1.01581	0	0	-0.0242722	-0.190139	0.661369	0.619666	0.836729	0	0
0.1	2.15764	1.37803	-0.612564	0.674932	-0.455056	0.980865	-0.084496	0.160494	-0.286354	0.206543	0.0911664	0	0	-0.20316	-0.132748	-0.150577	0.00139258	0.0757864	0	0	-0.151857	0.200193	0.0176654	-0.0875421	-0.320728	0.466953	0.746202	1.02511	0	0	-0.0256201	-0.161472	0.407957	0.600925	0.284059	0	0
0.11	2.15807	1.37824	-0.612403	0.674779	-0.455007	0.980886	-0.0842708	0.160169	-0.286531	0.206804	0.0912999	0	0	-0.202972	-0.132453	-0.149832	0.0013693	0.0757207	0	0	-0.151337	0.20027	0.018705	-0.089425	-0.320785	0.465088	0.745311	1.02509	0	0	-0.0245625	-0.160954	0.409454	0.598818	0.279851	0	0
0.12	2.15837	1.37845	-0.612235	0.67465	-0.454933	0.980897	-0.0839686	0.159846	-0.286944	0.207359	0.0914123	0	0	-0.202849	-0.132183	-0.149356	0.00130077	0.0756399	0	0	-0.150822	0.2003	0.0197586	-0.091519	-0.32096	0.463067	0.744542	1.02565	0	0	-0.0235734	-0.160594	0.411526	0.597196	0.275995	0	0
0.13	2.15891	1.37863	-0.612301	0.674553	-0.454839	0.980912	-0.0838245	0.159517	-0.287428	0.207756	0.0913425	0	0	-0.202758	-0.131965	-0.148902	0.00151416	0.0753799	0	0	-0.150337	0.20033	0.0205436	-0.0931946	-0.320581	0.460864	0.743309	1.02629	0	0	-0.0228687	-0.160354	0.413536	0.595656	0.272509	0	0
0.14	2.15902	1.37883	-0.611976	0.674465	-0.45473	0.980924	-0.0836833	0.159267	-0.287698	0.207962	0.0914088	0	0	-0.202657	-0.131759	-0.148376	0.00158377	0.0751688	0	0	-0.149766	0.200468	0.021045	-0.0943788	-0.319746	0.458713	0.741621	1.02654	0	0	-0.0223629	-0.160026	0.415287	0.594086	0.269535	0	0
0.15	2.15885	1.37903	-0.611414	0.674368	-0.454603	0.980929	-0.0835127	0.159022	-0.28795	0.208183	0.0916045	0	0	-0.202533	-0.131549	-0.147955	0.00161596	0.0752117	0	0	-0.149181	0.200662	0.0214865	-0.0954865	-0.319192	0.456901	0.740376	1.02697	0	0	-0.0219417	-0.159573	0.416725	0.59255	0.267135	0	0
